<svg width="24" height="24" viewBox="0 0 24 24" fill="none" xmlns="http://www.w3.org/2000/svg">
<path d="M6.08938 15C5.71097 14.1494 5.5 13.2031 5.5 12.2059C5.5 8.50233 8.41015 5.5 12 5.5C15.5899 5.5 18.5 8.50233 18.5 12.2059C18.5 13.2031 18.289 14.1494 17.9106 15" stroke="white" stroke-width="1.5" stroke-linecap="round"/>
<path d="M12 2V3" stroke="white" stroke-width="1.5" stroke-linecap="round" stroke-linejoin="round"/>
<path d="M22 12H21" stroke="white" stroke-width="1.5" stroke-linecap="round" stroke-linejoin="round"/>
<path d="M3 12H2" stroke="white" stroke-width="1.5" stroke-linecap="round" stroke-linejoin="round"/>
<path d="M19.0703 4.92871L18.3632 5.63582" stroke="white" stroke-width="1.5" stroke-linecap="round" stroke-linejoin="round"/>
<path d="M5.63672 5.63674L4.92961 4.92963" stroke="white" stroke-width="1.5" stroke-linecap="round" stroke-linejoin="round"/>
<path d="M14.5161 19.3064C15.5264 18.9796 15.9316 18.0548 16.0456 17.1246C16.0797 16.8467 15.851 16.6162 15.571 16.6162L8.47587 16.6164C8.18627 16.6164 7.95369 16.8622 7.98827 17.1497C8.09992 18.0781 8.38173 18.7562 9.45247 19.3064M14.5161 19.3064C14.5161 19.3064 9.62874 19.3064 9.45247 19.3064M14.5161 19.3064C14.3946 21.2514 13.8328 22.0217 12.0058 22.0001C10.0516 22.0362 9.60206 21.0841 9.45247 19.3064" stroke="white" stroke-width="1.5" stroke-linecap="round" stroke-linejoin="round"/>
</svg>
