<svg width="24" height="24" viewBox="0 0 24 24" fill="none" xmlns="http://www.w3.org/2000/svg">
<path d="M11.7725 22.2136C10.9543 22.2136 10.1727 21.889 8.60939 21.2398C4.7181 19.6237 2.77246 18.8157 2.77246 17.4565V7.95825M11.7725 22.2136C12.5907 22.2136 13.3723 21.889 14.9356 21.2398C18.8269 19.6237 20.7725 18.8157 20.7725 17.4565V7.95825M11.7725 22.2136V12.3823M2.77246 7.95825C2.77246 8.56212 3.57403 8.94345 5.17718 9.7061L8.09838 11.0958C9.90126 11.9535 10.8028 12.3823 11.7725 12.3823M2.77246 7.95825C2.77246 7.35438 3.57403 6.97306 5.17718 6.2104L7.27246 5.21362M20.7725 7.95825C20.7725 8.56212 19.9709 8.94345 18.3678 9.7061L15.4466 11.0958C13.6437 11.9535 12.7422 12.3823 11.7725 12.3823M20.7725 7.95825C20.7725 7.35438 19.9709 6.97306 18.3678 6.2104L16.2725 5.21362M5.77246 13.3654L7.77246 14.3486" stroke="white" stroke-width="1.5" stroke-linecap="round" stroke-linejoin="round"/>
<path d="M11.7762 2.21362L11.7762 9.21357M11.7762 9.21357C12.0392 9.21713 12.2987 9.03334 12.4902 8.80897L13.7725 7.27536M11.7762 9.21357C11.5224 9.21014 11.2654 9.0273 11.0621 8.80897L9.77246 7.27536" stroke="white" stroke-width="1.5" stroke-linecap="round"/>
</svg>
