<svg width="24" height="24" viewBox="0 0 24 24" fill="none" xmlns="http://www.w3.org/2000/svg">
<path d="M19 11.0032V10C19 6.22876 19 4.34315 17.8284 3.17157C16.6569 2 14.7712 2 11 2H10.0082L3 8.98648V14.0062C3 17.7714 3 19.654 4.16811 20.825L4.17504 20.8319C5.34602 22 7.2286 22 10.9938 22" stroke="white" stroke-width="1.5" stroke-linecap="round" stroke-linejoin="round"/>
<path d="M3 9H4C6.82843 9 8.24264 9 9.12132 8.12132C10 7.24264 10 5.82843 10 3V2" stroke="white" stroke-width="1.5" stroke-linecap="round" stroke-linejoin="round"/>
<path d="M16.4069 21.5964C16.6192 22.1345 17.3808 22.1345 17.5931 21.5964L17.6298 21.5031C18.1482 20.1887 19.1887 19.1482 20.5031 18.6298L20.5964 18.5931C21.1345 18.3808 21.1345 17.6192 20.5964 17.4069L20.5031 17.3702C19.1887 16.8518 18.1482 15.8113 17.6298 14.4969L17.5931 14.4036C17.3808 13.8655 16.6192 13.8655 16.4069 14.4036L16.3702 14.4969C15.8518 15.8113 14.8113 16.8518 13.4969 17.3702L13.4036 17.4069C12.8655 17.6192 12.8655 18.3808 13.4036 18.5931L13.4969 18.6298C14.8113 19.1482 15.8518 20.1887 16.3702 21.5031L16.4069 21.5964Z" stroke="white" stroke-width="1.5" stroke-linecap="round" stroke-linejoin="round"/>
</svg>
