<svg width="24" height="24" viewBox="0 0 24 24" fill="none" xmlns="http://www.w3.org/2000/svg">
<path d="M14.5 19H12.5C9.67157 19 8.25736 19 7.37868 18.1213C6.5 17.2426 6.5 15.8284 6.5 13V8C6.5 5.17157 6.5 3.75736 7.37868 2.87868C8.25736 2 9.67157 2 12.5 2H13.8431C14.6606 2 15.0694 2 15.4369 2.15224C15.8045 2.30448 16.0935 2.59351 16.6716 3.17157L19.3284 5.82843C19.9065 6.40648 20.1955 6.69552 20.3478 7.06306C20.5 7.4306 20.5 7.83935 20.5 8.65685V13C20.5 15.8284 20.5 17.2426 19.6213 18.1213C18.7426 19 17.3284 19 14.5 19Z" stroke="white" stroke-width="1.5" stroke-linecap="round" stroke-linejoin="round"/>
<path d="M15 2.5V3.5C15 5.38562 15 6.32843 15.5858 6.91421C16.1716 7.5 17.1144 7.5 19 7.5H20" stroke="white" stroke-width="1.5" stroke-linecap="round" stroke-linejoin="round"/>
<path d="M6.5 5C4.84315 5 3.5 6.34315 3.5 8V16C3.5 18.8285 3.5 20.2427 4.37868 21.1213C5.25736 22 6.67157 22 9.5 22H14.5004C16.1572 22 17.5004 20.6568 17.5004 19" stroke="white" stroke-width="1.5" stroke-linecap="round" stroke-linejoin="round"/>
<path d="M10 11H14M10 15H17" stroke="white" stroke-width="1.5" stroke-linecap="round" stroke-linejoin="round"/>
</svg>
