<svg width="24" height="24" viewBox="0 0 24 24" fill="none" xmlns="http://www.w3.org/2000/svg">
<path d="M12 22.2136C11.1818 22.2136 10.4002 21.8844 8.83693 21.2259C4.94564 19.587 3 18.7675 3 17.389V7.75596M12 22.2136C12.8182 22.2136 13.5998 21.8844 15.1631 21.2259C19.0544 19.587 21 18.7675 21 17.389V7.75596M12 22.2136V12.2428M3 7.75596C3 8.3684 3.80157 8.75514 5.40472 9.52862L8.32592 10.938C10.1288 11.8079 11.0303 12.2428 12 12.2428M3 7.75596C3 7.14352 3.80157 6.75679 5.40472 5.98331L7 5.21362M21 7.75596C21 8.3684 20.1984 8.75514 18.5953 9.52862L15.6741 10.938C13.8712 11.8079 12.9697 12.2428 12 12.2428M21 7.75596C21 7.14352 20.1984 6.75678 18.5953 5.98331L17.0446 5.23513M6 13.2399L8 14.237" stroke="white" stroke-width="1.5" stroke-linecap="round" stroke-linejoin="round"/>
<path d="M11.9963 9.21362L11.9963 2.21367M11.9963 2.21367C11.7332 2.21012 11.4737 2.39391 11.2822 2.61828L10 4.15188M11.9963 2.21367C12.2501 2.21711 12.5071 2.39995 12.7103 2.61828L14 4.15188" stroke="white" stroke-width="1.5" stroke-linecap="round"/>
</svg>
