<svg width="24" height="24" viewBox="0 0 24 24" fill="none" xmlns="http://www.w3.org/2000/svg">
<path d="M19.9998 9.90909V7.81818C19.9998 6.12494 19.9998 5.27832 19.7318 4.60214C19.301 3.5151 18.39 2.65765 17.235 2.2522C16.5165 2 15.617 2 13.8179 2C10.6696 2 9.09539 2 7.83812 2.44135C5.81689 3.15088 4.22257 4.65142 3.46869 6.55375C2.99976 7.73706 2.99976 9.21865 2.99976 12.1818V14.7273C2.99976 17.7966 2.99976 19.3313 3.84746 20.3971C4.09034 20.7025 4.37838 20.9736 4.70283 21.2022C5.83522 22 7.46582 22 10.727 22H11.4998C12.0344 22 13.0335 22 13.4998 21.9972M2.99976 12C2.99976 10.159 4.49214 8.66667 6.33309 8.66667C6.99887 8.66667 7.78379 8.78333 8.43112 8.60988C9.00627 8.45576 9.45552 8.00652 9.60963 7.43136C9.78308 6.78404 9.66642 5.99912 9.66642 5.33333C9.66642 3.49238 11.1588 2 12.9998 2" stroke="white" stroke-width="1.5" stroke-linecap="round" stroke-linejoin="round"/>
<path d="M20.7511 15.8111C20.856 14.5466 18.9213 13.5141 17.4427 14.2069C15.5957 15.0722 15.7568 17.2594 18.0379 17.3751C19.0531 17.4265 19.941 17.3169 20.5443 17.9708C21.1477 18.6248 21.4092 20.2901 19.6306 20.8553C17.8519 21.4204 15.998 20.4125 15.998 19.1831M18.4691 13V13.9777M18.4691 21.2204V22" stroke="white" stroke-width="1.5" stroke-linecap="round" stroke-linejoin="round"/>
</svg>
