<svg width="24" height="24" viewBox="0 0 24 24" fill="none" xmlns="http://www.w3.org/2000/svg">
<path d="M19.5 11V10C19.5 6.22876 19.5 4.34315 18.3284 3.17157C17.1569 2 15.2712 2 11.5 2H10.5001C6.7289 2 4.84329 2 3.67172 3.17156C2.50015 4.34312 2.50014 6.22872 2.5001 9.99993L2.50007 14C2.50004 17.7712 2.50002 19.6568 3.67156 20.8284C4.84312 21.9999 6.7288 22 10.5 22" stroke="white" stroke-width="1.5" stroke-linecap="round" stroke-linejoin="round"/>
<path d="M11 7H19M11 12H19" stroke="white" stroke-width="1.5" stroke-linecap="round"/>
<path d="M13 20.8268V22H14.1734C14.5827 22 14.7874 22 14.9715 21.9238C15.1555 21.8475 15.3003 21.7028 15.5897 21.4134L20.4133 16.5894C20.6864 16.3164 20.8229 16.1799 20.8959 16.0327C21.0347 15.7525 21.0347 15.4236 20.8959 15.1434C20.8229 14.9961 20.6864 14.8596 20.4133 14.5866C20.1403 14.3136 20.0038 14.1771 19.8565 14.1041C19.5763 13.9653 19.2473 13.9653 18.9671 14.1041C18.8198 14.1771 18.6833 14.3136 18.4103 14.5866L18.4103 14.5866L13.5867 19.4106C13.2972 19.7 13.1525 19.8447 13.0762 20.0287C13 20.2128 13 20.4174 13 20.8268Z" stroke="white" stroke-width="1.5" stroke-linejoin="round"/>
</svg>
