<svg width="24" height="24" viewBox="0 0 24 24" fill="none" xmlns="http://www.w3.org/2000/svg">
<path d="M2 5L8.91302 8.92462C11.4387 10.3585 12.5613 10.3585 15.087 8.92462L22 5" stroke="white" stroke-width="1.5" stroke-linejoin="round"/>
<path d="M21.9194 11.0333C21.9194 10.54 21.9142 10.0467 21.9037 9.55195C21.8387 6.47439 21.8061 4.93561 20.6796 3.79572C19.5529 2.65584 17.9851 2.61614 14.8492 2.53671C12.9166 2.48776 11.0029 2.48776 9.07023 2.5367C5.93442 2.61611 4.36651 2.65582 3.23994 3.79571C2.11336 4.9356 2.08081 6.47438 2.0157 9.55194C1.99476 10.5415 1.99477 11.5252 2.01571 12.5147C2.08081 15.5924 2.11337 17.1311 3.23995 18.271C4.36651 19.4109 5.93442 19.4505 9.07024 19.5299C10.0366 19.5544 10.9981 19.5667 11.9597 19.5667" stroke="white" stroke-width="1.5" stroke-linecap="round" stroke-linejoin="round"/>
<path d="M21.9992 21.5001C21.8831 18.9755 21.986 18.0571 20.3429 16.879C19.5354 16.3 17.9107 15.9186 15.7168 16.1245M17.451 13.5925L15.1543 15.7462C14.9603 15.9404 14.9588 16.2558 15.1511 16.4518L17.451 18.6399" stroke="white" stroke-width="1.5" stroke-linecap="round" stroke-linejoin="round"/>
</svg>
