<svg width="24" height="24" viewBox="0 0 24 24" fill="none" xmlns="http://www.w3.org/2000/svg">
<path d="M7.72 17.4632L9.481 16.9552L20.084 6.22517C20.1676 6.13947 20.2142 6.0243 20.2136 5.90456C20.2131 5.78481 20.1654 5.67009 20.081 5.58517L19.446 4.94317C19.405 4.90101 19.3559 4.86744 19.3018 4.84443C19.2477 4.82142 19.1895 4.80942 19.1306 4.80914C19.0718 4.80886 19.0135 4.8203 18.9591 4.8428C18.9048 4.8653 18.8554 4.8984 18.814 4.94017L8.239 15.6422L7.719 17.4622L7.72 17.4632ZM20.703 3.67117L21.338 4.31417C22.214 5.20117 22.222 6.63217 21.354 7.51017L10.428 18.5682L6.664 19.6522C6.4342 19.7165 6.18826 19.687 5.98016 19.5702C5.77206 19.4534 5.6188 19.2588 5.554 19.0292C5.50578 18.864 5.50509 18.6887 5.552 18.5232L6.647 14.6832L17.544 3.65417C17.7512 3.44553 17.9979 3.28023 18.2696 3.16792C18.5414 3.05561 18.8328 2.99854 19.1269 3.00003C19.4209 3.00152 19.7117 3.06154 19.9823 3.1766C20.2529 3.29165 20.4979 3.45944 20.703 3.67017V3.67117ZM9.184 4.82417C9.68 4.82417 10.082 5.23117 10.082 5.73317C10.0828 5.85184 10.0602 5.9695 10.0155 6.07942C9.97076 6.18935 9.90481 6.28938 9.82141 6.3738C9.73801 6.45823 9.63879 6.52538 9.52942 6.57143C9.42004 6.61748 9.30267 6.64152 9.184 6.64217H5.592C4.6 6.64217 3.796 7.45617 3.796 8.45917V19.3652C3.796 20.3692 4.6 21.1832 5.592 21.1832H16.368C17.36 21.1832 18.165 20.3692 18.165 19.3652V15.7302C18.165 15.2282 18.567 14.8212 19.063 14.8212C19.559 14.8212 19.961 15.2282 19.961 15.7312V19.3652C19.961 21.3732 18.352 23.0012 16.368 23.0012H5.592C3.608 23.0012 2 21.3732 2 19.3652V8.45917C2 6.45217 3.608 4.82417 5.592 4.82417H9.184Z" fill="url(#paint0_linear_1_10)"/>
<path d="M12.2112 1.20107C12.3104 0.932976 12.6896 0.932975 12.7888 1.20107L13.2334 2.40269C13.2958 2.57127 13.4287 2.70418 13.5973 2.76656L14.7989 3.2112C15.067 3.3104 15.067 3.6896 14.7989 3.7888L13.5973 4.23344C13.4287 4.29582 13.2958 4.42873 13.2334 4.59731L12.7888 5.79893C12.6896 6.06702 12.3104 6.06702 12.2112 5.79893L11.7666 4.59731C11.7042 4.42873 11.5713 4.29582 11.4027 4.23344L10.2011 3.7888C9.93298 3.6896 9.93298 3.3104 10.2011 3.2112L11.4027 2.76656C11.5713 2.70418 11.7042 2.57127 11.7666 2.40269L12.2112 1.20107Z" stroke="url(#paint1_linear_1_10)"/>
<defs>
<linearGradient id="paint0_linear_1_10" x1="2" y1="3.00717" x2="22" y2="23.0072" gradientUnits="userSpaceOnUse">
<stop stop-color="#7C0BFD"/>
<stop offset="1" stop-color="#3949FF"/>
</linearGradient>
<linearGradient id="paint1_linear_1_10" x1="12.5" y1="1" x2="12.5" y2="6" gradientUnits="userSpaceOnUse">
<stop stop-color="#7C0BFD"/>
<stop offset="1" stop-color="#3949FF"/>
</linearGradient>
</defs>
</svg>
