<svg width="24" height="24" viewBox="0 0 24 24" fill="none" xmlns="http://www.w3.org/2000/svg">
<path d="M17 12C17 14.7614 14.7614 17 12 17C9.23858 17 7 14.7614 7 12C7 9.23858 9.23858 7 12 7" stroke="url(#paint0_linear_11_14)" stroke-width="1.5" stroke-linecap="round"/>
<path d="M14 2.20004C13.3538 2.06886 12.6849 2 12 2C6.47715 2 2 6.47715 2 12C2 17.5228 6.47715 22 12 22C17.5228 22 22 17.5228 22 12C22 11.3151 21.9311 10.6462 21.8 10" stroke="url(#paint1_linear_11_14)" stroke-width="1.5" stroke-linecap="round"/>
<path d="M12.0312 11.9624L16.5841 7.40948M19.7414 4.3445L19.1882 2.35736C19.0862 2.02999 18.6924 1.89953 18.4269 2.1165C16.9908 3.29006 15.4264 4.87079 16.704 7.36407C19.2781 8.56442 20.7475 6.94572 21.8743 5.58518C22.0985 5.31448 21.9633 4.90755 21.6257 4.80993L19.7414 4.3445Z" stroke="url(#paint2_linear_11_14)" stroke-width="1.5" stroke-linecap="round" stroke-linejoin="round"/>
<defs>
<linearGradient id="paint0_linear_11_14" x1="12" y1="7" x2="12" y2="17" gradientUnits="userSpaceOnUse">
<stop stop-color="#7C0BFD"/>
<stop offset="1" stop-color="#3949FF"/>
</linearGradient>
<linearGradient id="paint1_linear_11_14" x1="12" y1="2" x2="12" y2="22" gradientUnits="userSpaceOnUse">
<stop stop-color="#7C0BFD"/>
<stop offset="1" stop-color="#3949FF"/>
</linearGradient>
<linearGradient id="paint2_linear_11_14" x1="17.0079" y1="2.00977" x2="17.0079" y2="11.9624" gradientUnits="userSpaceOnUse">
<stop stop-color="#7C0BFD"/>
<stop offset="1" stop-color="#3949FF"/>
</linearGradient>
</defs>
</svg>
