<svg width="24" height="24" viewBox="0 0 24 24" fill="none" xmlns="http://www.w3.org/2000/svg">
<path d="M1 3C1 2.46957 1.21071 1.96086 1.58579 1.58579C1.96086 1.21071 2.46957 1 3 1H9.5C10.0304 1 10.5391 1.21071 10.9142 1.58579C11.2893 1.96086 11.5 2.46957 11.5 3V9.5C11.5 10.0304 11.2893 10.5391 10.9142 10.9142C10.5391 11.2893 10.0304 11.5 9.5 11.5H7V15.563C7 16.355 7.644 17 8.438 17H12.5V14.5C12.5 13.9696 12.7107 13.4609 13.0858 13.0858C13.4609 12.7107 13.9696 12.5 14.5 12.5H21C21.5304 12.5 22.0391 12.7107 22.4142 13.0858C22.7893 13.4609 23 13.9696 23 14.5V21C23 21.5304 22.7893 22.0391 22.4142 22.4142C22.0391 22.7893 21.5304 23 21 23H14.5C13.9696 23 13.4609 22.7893 13.0858 22.4142C12.7107 22.0391 12.5 21.5304 12.5 21V18.5H8.437C7.65805 18.4995 6.91117 18.1897 6.36046 17.6388C5.80975 17.0879 5.50026 16.341 5.5 15.562V11.5H3C2.46957 11.5 1.96086 11.2893 1.58579 10.9142C1.21071 10.5391 1 10.0304 1 9.5V3ZM3 2.5C2.86739 2.5 2.74021 2.55268 2.64645 2.64645C2.55268 2.74021 2.5 2.86739 2.5 3V9.5C2.5 9.63261 2.55268 9.75979 2.64645 9.85355C2.74021 9.94732 2.86739 10 3 10H9.5C9.63261 10 9.75979 9.94732 9.85355 9.85355C9.94732 9.75979 10 9.63261 10 9.5V3C10 2.86739 9.94732 2.74021 9.85355 2.64645C9.75979 2.55268 9.63261 2.5 9.5 2.5H3ZM14.5 14C14.3674 14 14.2402 14.0527 14.1464 14.1464C14.0527 14.2402 14 14.3674 14 14.5V21C14 21.1326 14.0527 21.2598 14.1464 21.3536C14.2402 21.4473 14.3674 21.5 14.5 21.5H21C21.1326 21.5 21.2598 21.4473 21.3536 21.3536C21.4473 21.2598 21.5 21.1326 21.5 21V14.5C21.5 14.3674 21.4473 14.2402 21.3536 14.1464C21.2598 14.0527 21.1326 14 21 14H14.5Z" fill="url(#paint0_linear_1_4)"/>
<defs>
<linearGradient id="paint0_linear_1_4" x1="12" y1="1" x2="12" y2="23" gradientUnits="userSpaceOnUse">
<stop stop-color="#7C0BFD"/>
<stop offset="1" stop-color="#3949FF"/>
</linearGradient>
</defs>
</svg>
