<svg width="22" height="21" viewBox="0 0 22 21" fill="none" xmlns="http://www.w3.org/2000/svg">
<path d="M5.56854 6.94437L5.2704 6.25617H5.2704L5.56854 6.94437ZM8.42725 5.70592L8.72539 6.39412V6.39412L8.42725 5.70592ZM12.8293 5.70592L13.1275 5.01773V5.01773L12.8293 5.70592ZM15.688 6.94437L15.9862 6.25617V6.25617L15.688 6.94437ZM17.6486 12.3033L18.3328 12.6104V12.6104L17.6486 12.3033ZM3.608 12.3033L2.92376 12.6104V12.6104L3.608 12.3033ZM18.4795 8.75734L17.7902 9.05291L17.7902 9.05292L18.4795 8.75734ZM18.5586 8.97362L19.2759 8.75443L19.2759 8.75442L18.5586 8.97362ZM2.77707 8.75734L2.08777 8.46176H2.08776L2.77707 8.75734ZM2.69794 8.97362L1.98069 8.75443H1.98069L2.69794 8.97362ZM16.0425 2.58579L15.5122 3.11612L15.5122 3.11612L16.0425 2.58579ZM2.90128 19.1932L3.52502 19.6097L3.52904 19.6036L2.90128 19.1932ZM8.90127 19.2321L8.27629 18.8175L8.27298 18.8225L8.90127 19.2321ZM14.9013 19.1932L15.525 19.6097L15.529 19.6036L14.9013 19.1932ZM5.56854 6.94437L5.86667 7.63256L8.72539 6.39412L8.42725 5.70592L8.12911 5.01773L5.2704 6.25617L5.56854 6.94437ZM12.8293 5.70592L12.5312 6.39412L15.3899 7.63256L15.688 6.94437L15.9862 6.25617L13.1275 5.01773L12.8293 5.70592ZM17.6486 12.3033L16.9643 11.9961L15.7539 14.6929L16.4382 15L17.1224 15.3071L18.3328 12.6104L17.6486 12.3033ZM17.6486 12.3033V11.5533H14.6283V12.3033V13.0533H17.6486V12.3033ZM4.81839 15L5.50263 14.6929L4.29224 11.9961L3.608 12.3033L2.92376 12.6104L4.13415 15.3071L4.81839 15ZM3.608 12.3033V13.0533H6.62829V12.3033V11.5533H3.608V12.3033ZM15.688 6.94437L15.3899 7.63256C16.2334 7.99798 16.7975 8.24403 17.197 8.48381C17.5771 8.71194 17.7172 8.88263 17.7902 9.05291L18.4795 8.75734L19.1688 8.46176C18.9239 7.89067 18.4928 7.51207 17.9689 7.19766C17.4644 6.8949 16.7917 6.60515 15.9862 6.25617L15.688 6.94437ZM17.6486 12.3033L18.3328 12.6104C18.7072 11.7762 19.0173 11.0885 19.1956 10.5116C19.3791 9.91799 19.4561 9.34397 19.2759 8.75443L18.5586 8.97362L17.8414 9.19281C17.8979 9.3779 17.9021 9.61703 17.7625 10.0687C17.6177 10.5372 17.3545 11.127 16.9643 11.9962L17.6486 12.3033ZM18.4795 8.75734L17.7902 9.05292C17.8097 9.09832 17.8268 9.14503 17.8414 9.19281L18.5586 8.97362L19.2759 8.75442C19.2455 8.65498 19.2098 8.55726 19.1688 8.46176L18.4795 8.75734ZM8.42725 5.70592L8.72539 6.39412C9.87121 5.89772 10.2486 5.75 10.6283 5.75V5V4.25C9.86488 4.25 9.15592 4.57289 8.12911 5.01773L8.42725 5.70592ZM12.8293 5.70592L13.1275 5.01773C12.1007 4.57289 11.3917 4.25 10.6283 4.25V5V5.75C11.008 5.75 11.3854 5.89772 12.5312 6.39412L12.8293 5.70592ZM5.56854 6.94437L5.2704 6.25617C4.46485 6.60515 3.79215 6.8949 3.28768 7.19766C2.7638 7.51207 2.33265 7.89068 2.08777 8.46176L2.77707 8.75734L3.46637 9.05291C3.53939 8.88263 3.67945 8.71194 4.05957 8.48381C4.4591 8.24403 5.02318 7.99798 5.86668 7.63256L5.56854 6.94437ZM3.608 12.3033L4.29224 11.9962C3.90212 11.127 3.63884 10.5372 3.49406 10.0687C3.35446 9.61703 3.35863 9.3779 3.4152 9.19281L2.69794 8.97362L1.98069 8.75443C1.80052 9.34397 1.87747 9.91799 2.06095 10.5116C2.23924 11.0885 2.54936 11.7762 2.92376 12.6104L3.608 12.3033ZM2.77707 8.75734L2.08776 8.46176C2.04682 8.55726 2.01108 8.65497 1.98069 8.75443L2.69794 8.97362L3.4152 9.19281C3.4298 9.14503 3.44689 9.09832 3.46637 9.05291L2.77707 8.75734ZM16.6283 7H17.3783V6H16.6283H15.8783V7H16.6283ZM12.6283 2V1.25H8.62829V2V2.75H12.6283V2ZM4.62829 6H3.87829V7H4.62829H5.37829V6H4.62829ZM8.62829 2V1.25C7.70668 1.25 6.94003 1.24841 6.33381 1.32991C5.70601 1.41432 5.13921 1.59999 4.68374 2.05546L5.21407 2.58579L5.7444 3.11612C5.87472 2.9858 6.07222 2.87858 6.53368 2.81654C7.01672 2.75159 7.66428 2.75 8.62829 2.75V2ZM4.62829 6H5.37829C5.37829 5.03599 5.37988 4.38843 5.44482 3.90539C5.50687 3.44393 5.61409 3.24643 5.7444 3.11612L5.21407 2.58579L4.68374 2.05546C4.22827 2.51093 4.0426 3.07773 3.9582 3.70552C3.8767 4.31174 3.87829 5.07839 3.87829 6H4.62829ZM16.6283 6H17.3783C17.3783 5.07839 17.3799 4.31174 17.2984 3.70552C17.214 3.07773 17.0283 2.51093 16.5728 2.05546L16.0425 2.58579L15.5122 3.11612C15.6425 3.24643 15.7497 3.44393 15.8118 3.90539C15.8767 4.38843 15.8783 5.03599 15.8783 6H16.6283ZM12.6283 2V2.75C13.5923 2.75 14.2399 2.75159 14.7229 2.81654C15.1844 2.87858 15.3819 2.9858 15.5122 3.11612L16.0425 2.58579L16.5728 2.05546C16.1174 1.59999 15.5506 1.41432 14.9228 1.32991C14.3165 1.24841 13.5499 1.25 12.6283 1.25V2ZM10.6283 2H11.3783V0H10.6283H9.87829V2H10.6283ZM2.90128 19.1932L2.27756 18.7767C1.99099 19.2058 1.79292 19.2316 1.75851 19.2316C1.72714 19.2316 1.53406 19.2093 1.25657 18.7836L0.628288 19.1932L1.96695e-06 19.6028C0.407754 20.2283 1.00019 20.7316 1.75851 20.7316C2.5138 20.7316 3.10961 20.2317 3.52499 19.6097L2.90128 19.1932ZM8.90127 19.2321L8.27298 18.8225C8.1301 19.0417 8.03755 19.0802 8.02241 19.0857C8.01401 19.0888 7.97437 19.1044 7.85322 19.0626C7.72039 19.0169 7.54997 18.9223 7.32323 18.7661C7.08994 18.6053 6.87502 18.4361 6.59349 18.2298C6.10076 17.8685 5.40449 17.3857 4.61194 17.3379C3.70298 17.2831 2.92324 17.7889 2.27351 18.7828L2.90128 19.1932L3.52904 19.6036C4.00774 18.8713 4.34303 18.8244 4.52169 18.8352C4.81674 18.853 5.18064 19.0539 5.70662 19.4395C5.93444 19.6065 6.21852 19.8265 6.47209 20.0012C6.73223 20.1805 7.03655 20.3678 7.3646 20.4808C7.70432 20.5979 8.11169 20.6492 8.53466 20.4955C8.95089 20.3443 9.27408 20.0336 9.52956 19.6417L8.90127 19.2321ZM14.9013 19.1932L14.2776 18.7767C14.0974 19.0465 13.9741 19.118 13.9314 19.1358C13.9078 19.1456 13.8732 19.1573 13.7766 19.1247C13.6603 19.0855 13.5049 18.9971 13.2912 18.8377C13.074 18.6757 12.8681 18.497 12.603 18.281C12.1426 17.9058 11.4649 17.3734 10.6607 17.3164C9.73924 17.2512 8.95383 17.7963 8.27631 18.8175L8.90127 19.2321L9.52623 19.6468C10.0637 18.8366 10.4081 18.8023 10.5547 18.8127C10.8186 18.8314 11.1474 19.0298 11.6554 19.4438C11.8746 19.6224 12.1434 19.8529 12.3944 20.0401C12.6489 20.2299 12.9552 20.4306 13.2969 20.546C13.6584 20.668 14.0782 20.6997 14.5085 20.5203C14.9197 20.3489 15.2496 20.0221 15.525 19.6097L14.9013 19.1932ZM20.6283 19.5842L20.0814 19.071C19.9295 19.2328 19.8464 19.2467 19.8325 19.2487C19.8139 19.2515 19.7552 19.2551 19.6232 19.1868C19.485 19.1153 19.3208 18.9931 19.1134 18.8125C18.8747 18.6046 18.731 18.46 18.4529 18.2127C18.0185 17.8263 17.3686 17.2869 16.5684 17.2518C15.67 17.2125 14.9219 17.791 14.2735 18.7828L14.9013 19.1932L15.529 19.6036C16.0688 18.7779 16.3967 18.7457 16.5027 18.7504C16.7069 18.7593 16.9895 18.9185 17.456 19.3335C17.6283 19.4868 17.9272 19.7685 18.1282 19.9436C18.3604 20.1459 18.633 20.3633 18.9337 20.5189C19.2407 20.6778 19.6232 20.7963 20.0528 20.7325C20.4871 20.668 20.8595 20.4339 21.1752 20.0974L20.6283 19.5842Z" fill="url(#paint0_linear_11_32)"/>
<defs>
<linearGradient id="paint0_linear_11_32" x1="10.6283" y1="18" x2="10.6283" y2="20" gradientUnits="userSpaceOnUse">
<stop stop-color="#7C0BFD"/>
<stop offset="1" stop-color="#3949FF"/>
</linearGradient>
</defs>
</svg>
