<svg width="24" height="24" viewBox="0 0 24 24" fill="none" xmlns="http://www.w3.org/2000/svg">
<path d="M14.1706 20.8905C18.3536 20.6125 21.6856 17.2332 21.9598 12.9909C22.0134 12.1607 22.0134 11.3009 21.9598 10.4707C21.6856 6.22838 18.3536 2.84913 14.1706 2.57107C12.7435 2.47621 11.2536 2.47641 9.8294 2.57107C5.64639 2.84913 2.31441 6.22838 2.04024 10.4707C1.98659 11.3009 1.98659 12.1607 2.04024 12.9909C2.1401 14.536 2.82343 15.9666 3.62791 17.1746C4.09501 18.0203 3.78674 19.0758 3.30021 19.9978C2.94941 20.6626 2.77401 20.995 2.91484 21.2351C3.05568 21.4752 3.37026 21.4829 3.99943 21.4982C5.24367 21.5285 6.08268 21.1757 6.74868 20.6846C7.1264 20.4061 7.31527 20.2668 7.44544 20.2508C7.5756 20.2348 7.83177 20.3403 8.34401 20.5513C8.8044 20.7409 9.33896 20.8579 9.8294 20.8905C11.2536 20.9852 12.7435 20.9854 14.1706 20.8905Z" stroke="url(#paint0_linear_11_10)" stroke-width="1.5" stroke-linejoin="round"/>
<path d="M10.487 7.00089V8.9799M7 10.5013H9.05198M15.0231 10.5013H17.075M15.0231 13.4745H17.075M7 13.4745H9.05198M10.487 15.0201V16.9991M13.5125 15.0201V16.9991M13.5017 7.00089V8.9799M10.052 14.9684H14.0231C14.5753 14.9684 15.0231 14.5207 15.0231 13.9684V9.9799C15.0231 9.42762 14.5753 8.9799 14.0231 8.9799H10.052C9.49969 8.9799 9.05198 9.42762 9.05198 9.9799V13.9684C9.05198 14.5207 9.49969 14.9684 10.052 14.9684Z" stroke="url(#paint1_linear_11_10)" stroke-width="1.5" stroke-linecap="round"/>
<defs>
<linearGradient id="paint0_linear_11_10" x1="12" y1="2.5" x2="12" y2="21.5" gradientUnits="userSpaceOnUse">
<stop stop-color="#7C0BFD"/>
<stop offset="1" stop-color="#3949FF"/>
</linearGradient>
<linearGradient id="paint1_linear_11_10" x1="12.0375" y1="7.00089" x2="12.0375" y2="16.9991" gradientUnits="userSpaceOnUse">
<stop stop-color="#7C0BFD"/>
<stop offset="1" stop-color="#3949FF"/>
</linearGradient>
</defs>
</svg>
