<svg width="24" height="24" viewBox="0 0 24 24" fill="none" xmlns="http://www.w3.org/2000/svg">
<path d="M6.5 17.5L6.5 14.5M11.5 17.5L11.5 8.5M16.5 17.5V13.5" stroke="url(#paint0_linear_10_20)" stroke-width="1.5" stroke-linecap="round"/>
<path d="M21.5 5.5C21.5 7.15685 20.1569 8.5 18.5 8.5C16.8431 8.5 15.5 7.15685 15.5 5.5C15.5 3.84315 16.8431 2.5 18.5 2.5C20.1569 2.5 21.5 3.84315 21.5 5.5Z" stroke="url(#paint1_linear_10_20)" stroke-width="1.5"/>
<path d="M21.4955 11C21.4955 11 21.5 11.3395 21.5 12C21.5 16.4784 21.5 18.7175 20.1088 20.1088C18.7175 21.5 16.4783 21.5 12 21.5C7.52166 21.5 5.28249 21.5 3.89124 20.1088C2.5 18.7175 2.5 16.4784 2.5 12C2.5 7.52169 2.5 5.28252 3.89124 3.89127C5.28249 2.50003 7.52166 2.50003 12 2.50003L13 2.5" stroke="url(#paint2_linear_10_20)" stroke-width="1.5" stroke-linecap="round" stroke-linejoin="round"/>
<defs>
<linearGradient id="paint0_linear_10_20" x1="11.5" y1="8.5" x2="11.5" y2="17.5" gradientUnits="userSpaceOnUse">
<stop stop-color="#7C0BFD"/>
<stop offset="1" stop-color="#3949FF"/>
</linearGradient>
<linearGradient id="paint1_linear_10_20" x1="18.5" y1="2.5" x2="18.5" y2="8.5" gradientUnits="userSpaceOnUse">
<stop stop-color="#7C0BFD"/>
<stop offset="1" stop-color="#3949FF"/>
</linearGradient>
<linearGradient id="paint2_linear_10_20" x1="12" y1="2.5" x2="12" y2="21.5" gradientUnits="userSpaceOnUse">
<stop stop-color="#7C0BFD"/>
<stop offset="1" stop-color="#3949FF"/>
</linearGradient>
</defs>
</svg>
